<?xml version="1.0" standalone="no"?>
<!DOCTYPE svg PUBLIC "-//W3C//DTD SVG 20010904//EN"
 "http://www.w3.org/TR/2001/REC-SVG-20010904/DTD/svg10.dtd">
<svg version="1.0" xmlns="http://www.w3.org/2000/svg"
 width="225.000000pt" height="225.000000pt" viewBox="0 0 225.000000 225.000000"
 preserveAspectRatio="xMidYMid meet">

<g transform="translate(0.000000,225.000000) scale(0.100000,-0.100000)"
fill="#000000" stroke="none">
<path d="M0 1125 l0 -1125 1125 0 1125 0 0 1125 0 1125 -1125 0 -1125 0 0
-1125z m1805 -201 c37 -15 8 -24 -75 -24 -84 0 -117 11 -70 23 19 5 20 14 20
186 0 170 -1 182 -20 193 -29 18 -25 28 13 29 17 0 50 6 72 13 l40 12 3 -214
c2 -177 5 -214 17 -218z m-1465 400 c0 -3 -9 -13 -20 -22 -20 -17 -20 -17 9
-92 16 -41 37 -93 46 -115 l17 -39 24 59 c52 127 56 145 39 171 -8 13 -22 24
-31 24 -8 0 -12 5 -9 10 7 11 155 14 155 3 -1 -5 -15 -17 -32 -28 -27 -17 -43
-46 -95 -170 -86 -205 -103 -239 -112 -229 -5 5 -44 92 -86 194 -43 104 -87
194 -100 206 -13 12 -21 25 -18 28 8 8 213 8 213 0z m980 -46 c0 -50 -1 -52
-16 -30 -20 28 -58 48 -111 57 l-43 7 0 -56 c0 -31 -2 -56 -5 -56 -4 0 -20 7
-37 16 -17 9 -44 14 -59 12 -27 -4 -29 -2 -29 29 0 28 -5 36 -30 47 -17 7 -27
15 -23 19 3 4 84 7 180 7 l173 0 0 -52z m788 36 c41 -29 23 -84 -28 -84 -32 0
-50 17 -50 46 0 20 32 54 50 54 3 0 16 -7 28 -16z m-848 -189 c0 -89 -8 -105
-27 -55 -6 17 -23 34 -37 40 -34 13 -33 22 7 40 20 9 33 24 35 38 2 12 8 22
13 22 5 0 9 -38 9 -85z m-525 40 c23 -22 25 -31 25 -125 0 -98 4 -112 28 -88
9 9 12 8 12 -4 0 -41 -105 -65 -141 -32 -16 14 -20 14 -48 0 -63 -33 -141 -9
-141 43 0 28 47 63 113 86 l57 19 0 54 c0 50 -2 53 -22 50 -19 -2 -24 -10 -26
-46 -4 -49 -36 -78 -76 -68 -33 8 -41 35 -18 66 49 67 189 94 237 45z m225 10
c0 -18 1 -18 36 0 42 22 97 19 120 -6 16 -17 20 -41 24 -132 5 -107 6 -112 28
-115 36 -5 88 17 121 50 l31 32 0 -52 0 -52 -160 0 c-144 0 -188 7 -145 24 12
4 15 25 15 100 0 52 -3 101 -6 110 -7 19 -35 21 -52 4 -15 -15 -17 -218 -2
-218 6 0 10 -4 10 -10 0 -6 -35 -10 -85 -10 -50 0 -85 4 -85 10 0 6 7 10 15
10 12 0 15 19 15 110 0 103 -1 110 -22 122 -21 11 -18 13 42 24 90 16 100 16
100 -1z m640 -20 c38 -37 40 -78 5 -101 -23 -15 -27 -15 -50 0 -21 14 -25 24
-25 67 0 57 -18 73 -50 44 -43 -39 -33 -135 17 -175 34 -26 81 -26 110 2 30
28 32 2 2 -36 -60 -76 -183 -75 -237 1 -27 39 -33 81 -17 126 26 76 78 109
163 104 41 -3 59 -10 82 -32z m390 27 c0 -4 -15 -13 -34 -20 -18 -7 -41 -21
-50 -31 -16 -18 -14 -23 40 -115 31 -53 62 -96 70 -96 8 0 14 -4 14 -10 0 -6
-37 -10 -90 -10 -81 0 -107 8 -80 25 6 4 -3 31 -21 67 l-31 61 37 37 c28 29
35 43 30 59 -3 12 -13 21 -21 21 -8 0 -14 5 -14 10 0 6 32 10 75 10 41 0 75
-4 75 -8z"/>
<path d="M2045 1290 c-4 -12 -1 -27 5 -35 27 -33 78 -5 65 35 -10 32 -22 23
-17 -12 4 -29 3 -31 -11 -20 -12 10 -16 10 -21 0 -3 -7 -5 2 -3 20 4 36 -8 43
-18 12z"/>
<path d="M610 1030 c-32 -32 -21 -100 14 -87 12 5 16 20 16 57 0 27 -2 50 -5
50 -3 0 -14 -9 -25 -20z"/>
</g>
</svg>
