<?xml version="1.0" standalone="no"?>
<!DOCTYPE svg PUBLIC "-//W3C//DTD SVG 20010904//EN"
 "http://www.w3.org/TR/2001/REC-SVG-20010904/DTD/svg10.dtd">
<svg version="1.0" xmlns="http://www.w3.org/2000/svg"
 width="340.000000pt" height="340.000000pt" viewBox="0 0 340.000000 340.000000"
 preserveAspectRatio="xMidYMid meet">

<g transform="translate(0.000000,340.000000) scale(0.100000,-0.100000)"
fill="#000000" stroke="none">
<path d="M1436 3375 c-362 -59 -669 -216 -932 -479 -243 -244 -391 -516 -466
-859 -20 -89 -22 -131 -22 -337 0 -206 2 -248 22 -337 75 -343 223 -615 466
-859 244 -243 516 -391 859 -466 89 -20 131 -22 337 -22 206 0 248 2 337 22
677 148 1177 648 1325 1325 20 89 22 131 22 337 0 206 -2 248 -22 337 -33 154
-76 273 -147 418 -231 465 -656 794 -1172 906 -129 28 -472 36 -607 14z m1224
-750 c0 -11 -713 -2111 -719 -2118 -12 -12 -356 127 -409 167 -90 66 -169 165
-222 279 -16 34 -146 387 -289 785 -272 758 -286 789 -362 840 -19 13 -35 27
-37 33 -2 5 135 9 355 9 l358 0 249 -736 c137 -404 253 -737 256 -739 9 -6
382 1193 388 1246 8 83 -40 171 -108 199 -16 7 -30 19 -30 26 0 12 49 14 285
14 157 0 285 -2 285 -5z m-485 -2020 c14 -13 25 -30 25 -38 0 -25 -41 -67 -65
-67 -24 0 -65 42 -65 67 0 19 45 63 65 63 9 0 27 -11 40 -25z"/>
<path d="M2102 598 c-13 -13 -15 -37 -6 -62 7 -19 55 -21 72 -4 28 28 7 78
-33 78 -12 0 -26 -5 -33 -12z m64 -9 c3 -6 2 -15 -4 -21 -6 -6 -8 -18 -5 -27
4 -13 2 -13 -10 2 -15 18 -16 18 -26 0 -9 -15 -10 -12 -11 20 0 33 3 37 24 37
14 0 28 -5 32 -11z"/>
<path d="M2120 580 c0 -5 7 -10 16 -10 8 0 12 5 9 10 -3 6 -10 10 -16 10 -5 0
-9 -4 -9 -10z"/>
</g>
</svg>
